<svg width="54" height="54" viewBox="0 0 54 54" fill="none" xmlns="http://www.w3.org/2000/svg">
<circle cx="27" cy="27" r="27" fill="#009E69" fill-opacity="0.1"/>
<path d="M24 29V32H30V29H37V36C37 36.2652 36.8946 36.5196 36.7071 36.7071C36.5196 36.8946 36.2652 37 36 37H18C17.7348 37 17.4804 36.8946 17.2929 36.7071C17.1054 36.5196 17 36.2652 17 36V29H24ZM26 27H28V30H26V27ZM22 21V18C22 17.7348 22.1054 17.4804 22.2929 17.2929C22.4804 17.1054 22.7348 17 23 17H31C31.2652 17 31.5196 17.1054 31.7071 17.2929C31.8946 17.4804 32 17.7348 32 18V21H36C36.2652 21 36.5196 21.1054 36.7071 21.2929C36.8946 21.4804 37 21.7348 37 22V27H30V25H24V27H17V22C17 21.7348 17.1054 21.4804 17.2929 21.2929C17.4804 21.1054 17.7348 21 18 21H22ZM24 19V21H30V19H24Z" fill="#009E69"/>
</svg>
