<svg width="54" height="54" viewBox="0 0 54 54" fill="none" xmlns="http://www.w3.org/2000/svg">
<circle cx="27" cy="27" r="27" fill="#009E69" fill-opacity="0.1"/>
<path d="M34 34H20V35C20 35.2652 19.8946 35.5196 19.7071 35.7071C19.5196 35.8946 19.2652 36 19 36H18C17.7348 36 17.4804 35.8946 17.2929 35.7071C17.1054 35.5196 17 35.2652 17 35V26L19.513 19.298C19.6559 18.9167 19.9119 18.5881 20.2466 18.3562C20.5813 18.1242 20.9788 17.9999 21.386 18H32.614C33.0212 17.9999 33.4187 18.1242 33.7534 18.3562C34.0881 18.5881 34.3441 18.9167 34.487 19.298L37 26V35C37 35.2652 36.8946 35.5196 36.7071 35.7071C36.5196 35.8946 36.2652 36 36 36H35C34.7348 36 34.4804 35.8946 34.2929 35.7071C34.1054 35.5196 34 35.2652 34 35V34ZM19.136 26H34.864L32.614 20H21.386L19.136 26ZM21.5 31C21.8978 31 22.2794 30.842 22.5607 30.5607C22.842 30.2794 23 29.8978 23 29.5C23 29.1022 22.842 28.7206 22.5607 28.4393C22.2794 28.158 21.8978 28 21.5 28C21.1022 28 20.7206 28.158 20.4393 28.4393C20.158 28.7206 20 29.1022 20 29.5C20 29.8978 20.158 30.2794 20.4393 30.5607C20.7206 30.842 21.1022 31 21.5 31V31ZM32.5 31C32.8978 31 33.2794 30.842 33.5607 30.5607C33.842 30.2794 34 29.8978 34 29.5C34 29.1022 33.842 28.7206 33.5607 28.4393C33.2794 28.158 32.8978 28 32.5 28C32.1022 28 31.7206 28.158 31.4393 28.4393C31.158 28.7206 31 29.1022 31 29.5C31 29.8978 31.158 30.2794 31.4393 30.5607C31.7206 30.842 32.1022 31 32.5 31V31Z" fill="#009E69"/>
</svg>
