<svg width="54" height="54" viewBox="0 0 54 54" fill="none" xmlns="http://www.w3.org/2000/svg">
<circle cx="27" cy="27" r="27" fill="#009E69" fill-opacity="0.1"/>
<path d="M36 19H22C21.4696 19 20.9609 19.2107 20.5858 19.5858C20.2107 19.9609 20 20.4696 20 21C20 21.5304 20.2107 22.0391 20.5858 22.4142C20.9609 22.7893 21.4696 23 22 23H36V36C36 36.2652 35.8946 36.5196 35.7071 36.7071C35.5196 36.8946 35.2652 37 35 37H22C20.9391 37 19.9217 36.5786 19.1716 35.8284C18.4214 35.0783 18 34.0609 18 33V21C18 19.9391 18.4214 18.9217 19.1716 18.1716C19.9217 17.4214 20.9391 17 22 17H35C35.2652 17 35.5196 17.1054 35.7071 17.2929C35.8946 17.4804 36 17.7348 36 18V19ZM35 22H22C21.7348 22 21.4804 21.8946 21.2929 21.7071C21.1054 21.5196 21 21.2652 21 21C21 20.7348 21.1054 20.4804 21.2929 20.2929C21.4804 20.1054 21.7348 20 22 20H35V22Z" fill="#009E69"/>
</svg>
